<svg width="24" height="25" viewBox="0 0 24 25" fill="none" xmlns="http://www.w3.org/2000/svg">
<path d="M7.29395 25C7.1377 25 7.03353 24.9479 6.87728 24.8958C6.46061 24.7396 6.2002 24.3229 6.2002 23.8542V20.2083H1.35645C0.731445 20.2083 0.262695 19.6875 0.262695 19.1146V1.09375C0.262695 0.46875 0.783529 0 1.35645 0H22.5023C23.1273 0 23.596 0.520833 23.596 1.09375V15.3125C23.596 15.625 23.4919 15.8854 23.2835 16.0937L19.4814 19.8958C19.2731 20.1042 19.0127 20.2083 18.7002 20.2083H12.3981L8.0752 24.6354C7.91895 24.8958 7.60645 25 7.29395 25ZM2.50228 18.0208H7.34603C7.97103 18.0208 8.43978 18.5417 8.43978 19.1146V21.1458L11.1481 18.3333C11.3564 18.125 11.6689 18.0208 11.9294 18.0208H18.2314L21.3564 14.8958V2.23958H2.50228V18.0208ZM11.5648 12.5V7.13542C11.5648 6.51042 11.0439 6.04167 10.471 6.04167C9.89811 6.04167 9.37728 6.5625 9.37728 7.13542V12.5C9.37728 13.125 9.89811 13.5937 10.471 13.5937C11.0439 13.5937 11.5648 13.125 11.5648 12.5ZM17.2939 12.5V7.13542C17.2939 6.51042 16.7731 6.04167 16.2002 6.04167C15.6273 6.04167 15.1064 6.5625 15.1064 7.13542V12.5C15.1064 13.125 15.6273 13.5937 16.2002 13.5937C16.7731 13.5937 17.2939 13.125 17.2939 12.5Z" fill="white"/>
</svg>
