<svg width="28" height="24" viewBox="0 0 28 24" fill="none" xmlns="http://www.w3.org/2000/svg">
<path fill-rule="evenodd" clip-rule="evenodd" d="M8.806 23.1995C19.3718 23.1995 25.151 14.5805 25.151 7.10704C25.151 6.86169 25.151 6.61818 25.1342 6.37559C26.2584 5.57614 27.2286 4.58352 28 3.44776C26.9528 3.90538 25.8398 4.20549 24.7016 4.3378C25.9 3.6307 26.7974 2.51981 27.2272 1.20899C26.0988 1.86784 24.8654 2.33284 23.5788 2.58233C21.4032 0.305272 17.7646 0.194948 15.4504 2.33692C13.9594 3.71803 13.3252 5.77725 13.7886 7.74141C9.17 7.51261 4.8664 5.36516 1.9488 1.83243C0.4242 4.41684 1.204 7.72181 3.7282 9.38135C2.814 9.35516 1.9194 9.11283 1.12 8.67452V8.7463C1.1214 11.4382 3.0492 13.7561 5.7288 14.2896C4.8832 14.517 3.9956 14.55 3.136 14.3859C3.8878 16.6906 6.0452 18.2691 8.5022 18.3146C6.468 19.8886 3.955 20.7434 1.3678 20.7406C0.9114 20.7392 0.455 20.713 0 20.6593C2.6278 22.3188 5.684 23.1995 8.806 23.1954" fill="white"/>
</svg>
