<svg width="13" height="25" viewBox="0 0 13 25" fill="none" xmlns="http://www.w3.org/2000/svg">
<path d="M7.94302 5.95276C7.94302 6.20912 7.94302 7.04469 7.94302 8.23177H12.0244L11.5819 11.8701H7.94302C7.94302 17.4811 7.94302 25 7.94302 25H3.11298C3.11298 25 3.11298 17.5806 3.11298 11.8701H0.596191V8.23177H3.11298C3.11298 6.78891 3.11298 5.76293 3.11298 5.47727C3.11298 4.11621 3.01043 3.47041 3.58876 2.41572C4.16738 1.36107 5.79948 -0.032967 8.62233 0.000594659C11.4459 0.0353795 12.636 0.307004 12.636 0.307004L12.0244 4.18455C12.0244 4.18455 10.2215 3.70848 9.33647 3.87814C8.45266 4.04786 7.94302 4.59229 7.94302 5.95276Z" fill="white"/>
</svg>
