<svg width="54" height="54" viewBox="0 0 54 54" fill="none" xmlns="http://www.w3.org/2000/svg">
<path d="M34.5376 26.145C32.4228 26.1495 30.3544 25.5265 28.5938 24.3547C26.8334 23.1831 25.46 21.5155 24.6475 19.563C23.8353 17.6105 23.6204 15.4609 24.0303 13.3863C24.4401 11.3116 25.4562 9.40518 26.9499 7.90826C28.4437 6.41133 30.3481 5.3912 32.4217 4.977C34.4955 4.5628 36.6456 4.77313 38.5998 5.58137C40.5541 6.38962 42.2245 7.75944 43.3999 9.51748C44.5753 11.2755 45.2026 13.3427 45.2026 15.4575C45.2026 18.2881 44.0796 21.0031 42.0803 23.0067C40.0809 25.0103 37.3681 26.1389 34.5376 26.145ZM34.5376 8.14498C33.0895 8.14052 31.6725 8.56618 30.4665 9.36797C29.2607 10.1698 28.3197 11.3116 27.7635 12.6487C27.2073 13.9858 27.0606 15.458 27.3421 16.8785C27.6236 18.2991 28.3204 19.6041 29.3444 20.6282C30.3684 21.6522 31.6734 22.3491 33.094 22.6305C34.5147 22.912 35.9868 22.7653 37.3238 22.209C38.661 21.6527 39.8028 20.712 40.6045 19.506C41.4064 18.3 41.8321 16.8831 41.8276 15.435C41.8157 13.5073 41.0433 11.6622 39.678 10.3012C38.3127 8.94022 36.4654 8.17337 34.5376 8.16748V8.14498Z" fill="#FFA800"/>
<path d="M40.0725 48.24H11.25C10.8025 48.24 10.3732 48.0623 10.0568 47.7457C9.74029 47.4293 9.5625 47 9.5625 46.5525C9.5625 46.105 9.74029 45.6757 10.0568 45.3593C10.3732 45.0428 10.8025 44.865 11.25 44.865H40.0725C40.52 44.865 40.9493 45.0428 41.2657 45.3593C41.5823 45.6757 41.76 46.105 41.76 46.5525C41.76 47 41.5823 47.4293 41.2657 47.7457C40.9493 48.0623 40.52 48.24 40.0725 48.24Z" fill="#FFA800"/>
<path d="M25.5376 48.24C25.3808 48.2618 25.2219 48.2618 25.0651 48.24C24.6356 48.1147 24.2731 47.8237 24.058 47.4313C23.8429 47.0389 23.7922 46.577 23.9176 46.1475L30.4426 23.6475C30.502 23.4331 30.6037 23.2328 30.7418 23.0582C30.88 22.8839 31.0517 22.739 31.2465 22.6321C31.4416 22.525 31.6562 22.4582 31.8774 22.4355C32.0988 22.4129 32.3225 22.4348 32.5351 22.5C32.9615 22.6303 33.3199 22.9221 33.5343 23.3129C33.7485 23.7038 33.8018 24.163 33.6826 24.5925L27.1576 47.0925C27.0406 47.4284 26.8217 47.7196 26.5312 47.9254C26.2407 48.1311 25.8935 48.2411 25.5376 48.24Z" fill="#FFA800"/>
</svg>
