<svg width="45" height="45" viewBox="0 0 45 45" fill="none" xmlns="http://www.w3.org/2000/svg">
<g clip-path="url(#clip0_1_201)">
<path d="M43.125 25.5C43.1237 29.4185 42.0062 33.2556 39.9032 36.562C37.8003 39.8684 34.799 42.5073 31.2507 44.1699C27.7023 45.8324 23.7538 46.4497 19.8674 45.9495C15.9809 45.4494 12.3174 43.8524 9.30561 41.3457L8.82561 41.8257C8.47406 42.1773 7.99723 42.3749 7.49999 42.375C7.25351 42.3758 7.00936 42.3274 6.78186 42.2325C6.43933 42.0905 6.14659 41.8501 5.94067 41.5417C5.73475 41.2334 5.62489 40.8708 5.62499 40.5V36.75C5.62499 36.2528 5.82253 35.7758 6.17416 35.4242C6.52579 35.0726 7.00271 34.875 7.49999 34.875H11.25C11.6208 34.8751 11.9832 34.9851 12.2915 35.1912C12.5997 35.3972 12.84 35.69 12.9819 36.0326C13.1238 36.3751 13.1609 36.7521 13.0886 37.1157C13.0163 37.4794 12.8378 37.8134 12.5756 38.0757L11.9719 38.6794C14.9601 41.0649 18.6699 42.3649 22.4935 42.3664C26.3172 42.3678 30.028 41.0707 33.018 38.6875C36.0081 36.3042 38.1001 32.9762 38.9514 29.2485C39.8027 25.5208 39.3628 21.6145 37.7038 18.1696C36.0448 14.7246 33.265 11.9451 29.8198 10.2866C26.3746 8.628 22.4683 8.18862 18.7407 9.04043C15.0131 9.89223 11.6854 11.9847 9.30253 14.9751C6.91967 17.9654 5.62303 21.6764 5.62499 25.5C5.6252 26.6334 5.73826 27.764 5.96249 28.875C6.06194 29.3624 5.96373 29.8692 5.68946 30.2842C5.41519 30.6991 4.98732 30.9881 4.49999 31.0875C4.01265 31.187 3.50577 31.0888 3.09085 30.8145C2.67592 30.5402 2.38695 30.1124 2.28749 29.625C1.71407 26.8011 1.73876 23.8883 2.35996 21.0745C2.98116 18.2607 4.18509 15.6082 5.89414 13.2882C7.60319 10.9681 9.77943 9.03193 12.2826 7.60442C14.7857 6.17691 17.5602 5.28977 20.4272 5.00017C23.2942 4.71058 26.1901 5.02496 28.9281 5.92305C31.6662 6.82115 34.1856 8.28302 36.3241 10.2144C38.4626 12.1458 40.1727 14.5039 41.344 17.1367C42.5154 19.7695 43.1221 22.6184 43.125 25.5ZM22.5 12.375C22.0027 12.375 21.5258 12.5726 21.1742 12.9242C20.8225 13.2758 20.625 13.7527 20.625 14.25V25.5C20.625 25.9973 20.8225 26.4742 21.1742 26.8259C21.5258 27.1775 22.0027 27.375 22.5 27.375H31.875C32.3723 27.375 32.8492 27.1775 33.2008 26.8259C33.5524 26.4742 33.75 25.9973 33.75 25.5C33.75 25.0027 33.5524 24.5258 33.2008 24.1742C32.8492 23.8226 32.3723 23.625 31.875 23.625H24.375V14.25C24.375 13.7527 24.1774 13.2758 23.8258 12.9242C23.4742 12.5726 22.9973 12.375 22.5 12.375Z" fill="#FFA800"/>
</g>
<defs>
<clipPath id="clip0_1_201">
<rect width="45" height="45" fill="white"/>
</clipPath>
</defs>
</svg>
