<svg width="27" height="26" viewBox="0 0 27 26" fill="none" xmlns="http://www.w3.org/2000/svg">
<path fill-rule="evenodd" clip-rule="evenodd" d="M3.4289 0H23.1197C24.8498 0 26.2629 1.41576 26.2629 3.14325V22.7067C26.2629 24.4368 24.8472 25.85 23.1197 25.85H3.4289C1.69881 25.85 0.285645 24.4342 0.285645 22.7067V3.14325C0.285645 1.41316 1.70141 0 3.4289 0ZM3.09119 10.6429H5.68632C5.41616 11.43 5.26809 12.2717 5.26809 13.1497C5.26809 17.4801 8.85295 20.9897 13.2743 20.9897C17.6956 20.9897 21.2805 17.4801 21.2805 13.1497C21.2805 12.2743 21.1324 11.43 20.8623 10.6429H23.4574V21.5274C23.4574 22.2989 22.8261 22.9276 22.0572 22.9276H4.38486C3.67308 22.9276 3.09119 22.3457 3.09119 21.6339V10.6429ZM19.1815 2.56136H22.1975C22.8781 2.56136 23.4366 3.11987 23.4366 3.80048V6.60343C23.4366 7.28403 22.8781 7.84254 22.1975 7.84254H19.1815C18.5009 7.84254 17.9424 7.28403 17.9424 6.60343V3.80048C17.9424 3.11987 18.5009 2.56136 19.1815 2.56136ZM13.2821 7.62693C16.1526 7.62693 18.4801 9.90774 18.4801 12.7185C18.4801 15.5292 16.1526 17.81 13.2821 17.81C10.4116 17.81 8.08403 15.5292 8.08403 12.7185C8.08403 9.90774 10.4116 7.62693 13.2821 7.62693Z" fill="white"/>
</svg>
