<svg width="50" height="50" viewBox="0 0 50 50" fill="none" xmlns="http://www.w3.org/2000/svg">
<path d="M39 6.64001H33C30.7908 6.64001 29 8.43088 29 10.64V16.64C29 18.8492 30.7908 20.64 33 20.64H39C41.2092 20.64 43 18.8492 43 16.64V10.64C43 8.43088 41.2092 6.64001 39 6.64001Z" stroke="#FFA800" stroke-width="3.6" stroke-linecap="round" stroke-linejoin="round"/>
<path d="M17 6.64001H11C8.79086 6.64001 7 8.43088 7 10.64V16.64C7 18.8492 8.79086 20.64 11 20.64H17C19.2091 20.64 21 18.8492 21 16.64V10.64C21 8.43088 19.2091 6.64001 17 6.64001Z" stroke="#FFA800" stroke-width="3.6" stroke-linecap="round" stroke-linejoin="round"/>
<path d="M39 28.64H33C30.7908 28.64 29 30.4308 29 32.64V38.64C29 40.8492 30.7908 42.64 33 42.64H39C41.2092 42.64 43 40.8492 43 38.64V32.64C43 30.4308 41.2092 28.64 39 28.64Z" stroke="#FFA800" stroke-width="3.6" stroke-linecap="round" stroke-linejoin="round"/>
<path d="M17 28.64H11C8.79086 28.64 7 30.4308 7 32.64V38.64C7 40.8492 8.79086 42.64 11 42.64H17C19.2091 42.64 21 40.8492 21 38.64V32.64C21 30.4308 19.2091 28.64 17 28.64Z" stroke="#FFA800" stroke-width="3.6" stroke-linecap="round" stroke-linejoin="round"/>
</svg>
