<svg width="45" height="45" viewBox="0 0 45 45" fill="none" xmlns="http://www.w3.org/2000/svg">
<path d="M43.5471 21.2668C33.5632 21.2668 30.1108 18.7619 28.1745 16.8256C26.2382 14.881 23.7291 11.434 23.7291 1.4516C23.7291 1.07121 23.6893 0 22.4973 0C21.3162 0 21.2695 1.07121 21.2695 1.4516C21.2695 11.434 18.7591 14.881 16.8228 16.8256C14.8809 18.7619 11.4285 21.2668 1.4502 21.2668C1.0684 21.2668 0 21.3108 0 22.5014C0 23.6838 1.0684 23.7264 1.4502 23.7264C11.4285 23.7264 14.881 26.2382 16.8228 28.1759C18.7592 30.1135 21.2695 33.5674 21.2695 43.5498C21.2695 43.9316 21.3162 45 22.4973 45C23.6893 45 23.7291 43.9316 23.7291 43.5498C23.7291 33.5674 26.2382 30.1135 28.1745 28.1758C30.1108 26.2354 33.5633 23.7263 43.5471 23.7263C43.9275 23.7263 45 23.6892 45 22.4973C45 21.3149 43.9275 21.2668 43.5471 21.2668Z" fill="#FFA800"/>
</svg>
