<svg width="35" height="24" viewBox="0 0 35 24" fill="none" xmlns="http://www.w3.org/2000/svg">
<path fill-rule="evenodd" clip-rule="evenodd" d="M13.6945 16.4333V6.81308C17.1097 8.4201 19.7547 9.97252 22.8831 11.6462C20.3029 13.0772 17.1097 14.6827 13.6945 16.4333ZM32.7274 2.02849C32.1383 1.25233 31.1342 0.648152 30.0653 0.448129C26.9233 -0.148528 7.32169 -0.150225 4.1814 0.448129C3.32418 0.608826 2.56086 0.997255 1.90514 1.60075C-0.857764 4.16515 0.00799916 17.9172 0.673966 20.1448C0.954012 21.109 1.31604 21.8044 1.77197 22.2609C2.35939 22.8644 3.16365 23.2799 4.08747 23.4663C6.67449 24.0014 20.0023 24.3006 30.0106 23.5466C30.9327 23.3859 31.7489 22.957 32.3927 22.3279C34.9473 19.7737 34.7731 5.24937 32.7274 2.02849Z" fill="white"/>
</svg>
