<svg width="44" height="38" viewBox="0 0 44 38" fill="none" xmlns="http://www.w3.org/2000/svg">
<path d="M5.80009 37.7007C2.61004 37.7007 0 35.0907 0 31.9006V26.1006C0 22.9105 2.61004 20.3005 5.80009 20.3005C8.99014 20.3005 11.6002 22.9105 11.6002 26.1006V31.9006C11.6002 35.0907 8.99014 37.7007 5.80009 37.7007ZM5.80009 23.2005C4.06006 23.2005 2.90005 24.3605 2.90005 26.1006V31.9006C2.90005 33.6407 4.06006 34.8007 5.80009 34.8007C7.54012 34.8007 8.70014 33.6407 8.70014 31.9006V26.1006C8.70014 24.3605 7.54012 23.2005 5.80009 23.2005Z" fill="#FFA800"/>
<path d="M37.6995 37.7004C34.5095 37.7004 31.8994 35.0904 31.8994 31.9004V26.1003C31.8994 22.9102 34.5095 20.3002 37.6995 20.3002C40.8896 20.3002 43.4996 22.9102 43.4996 26.1003V31.9004C43.4996 35.0904 40.8896 37.7004 37.6995 37.7004ZM37.6995 23.2002C35.9595 23.2002 34.7995 24.3602 34.7995 26.1003V31.9004C34.7995 33.6404 35.9595 34.8004 37.6995 34.8004C39.4395 34.8004 40.5996 33.6404 40.5996 31.9004V26.1003C40.5996 24.3602 39.4395 23.2002 37.6995 23.2002Z" fill="#FFA800"/>
<path d="M5.79883 21.7503V15.9503C5.79883 7.25012 13.0489 0 21.7491 0C30.4492 0 37.6993 7.25012 37.6993 15.9503V21.7503H34.7993V15.9503C34.7993 8.70014 28.9992 2.90005 21.7491 2.90005C14.499 2.90005 8.69887 8.70014 8.69887 15.9503V21.7503H5.79883Z" fill="#FFA800"/>
</svg>
