<svg width="60" height="60" viewBox="0 0 60 60" fill="none" xmlns="http://www.w3.org/2000/svg">
<rect x="1" y="1" width="58" height="58" rx="8" fill="black" stroke="white" stroke-width="2"/>
<path fill-rule="evenodd" clip-rule="evenodd" d="M20.9371 22.2245H25.8091C28.0178 22.2245 29.9294 21.5531 29.9294 19.0969C29.9294 17.1481 28.2509 16.7342 26.6371 16.7342H22.1042L20.9371 22.2245ZM40.2306 35.3528H48L40.9885 40.1952L42.1224 47.8258L36.0474 43.2204L27.8946 48L31.7066 39.9125C31.7066 39.9125 27.2728 35.2992 27.2763 35.2992C26.9782 34.9065 26.8786 33.8952 26.8786 33.46C26.8786 32.9099 26.9138 32.3527 26.9513 31.7593C26.994 31.083 27.0397 30.3599 27.0397 29.5463C27.0397 27.5386 26.1508 26.4886 23.9776 26.4886H19.9033L18.1292 34.776H12L16.8743 12H28.4086C32.6949 12 35.9661 13.0522 35.9661 17.9039C35.9661 21.3191 34.2816 23.7449 30.5657 24.2543V24.3197C32.313 24.7342 32.9675 25.9136 32.9675 28.1114C32.9675 28.9888 32.9409 29.7588 32.9156 30.4831C32.8933 31.1262 32.8722 31.7331 32.8722 32.3472C32.8722 33.1342 33.0773 34.4207 33.5935 35.2992H34.4451L38.9984 27.7097L40.2306 35.3528ZM39.2665 36.4659H44.4227L39.7741 39.6754L40.6047 45.2711L36.1318 41.8771L30.4534 45.2039L33.0529 39.6963L29.8921 36.4117H35.0887L38.3762 30.9323L39.2665 36.4659Z" fill="white"/>
</svg>
