<svg width="50" height="48" viewBox="0 0 50 48" fill="none" xmlns="http://www.w3.org/2000/svg">
<path d="M49.6642 47.6596C49.4771 47.8499 49.2309 47.9682 48.9677 47.9944C48.7045 48.0206 48.4405 47.9531 48.2206 47.8034C48.0008 47.6536 47.8387 47.4309 47.762 47.1731C47.6853 46.9153 47.6987 46.6384 47.8 46.3895C47.9012 46.1407 48.084 45.9353 48.3172 45.8083C48.5504 45.6812 48.8197 45.6405 49.0791 45.693C49.3385 45.7454 49.572 45.8878 49.7399 46.096C49.9078 46.3041 49.9997 46.565 49.9999 46.8344C50.0025 46.988 49.9741 47.1406 49.9163 47.2825C49.8586 47.4245 49.7728 47.5528 49.6642 47.6596ZM48.155 46.1271C47.9724 46.3155 47.87 46.5696 47.87 46.8344C47.87 47.0992 47.9724 47.3533 48.155 47.5417C48.3394 47.7288 48.5891 47.8339 48.8494 47.8339C49.1098 47.8339 49.3595 47.7288 49.5439 47.5417C49.7015 47.3492 49.7828 47.1036 49.7716 46.8531C49.7605 46.6027 49.6579 46.3655 49.4838 46.1883C49.3098 46.011 49.0769 45.9065 48.8311 45.8951C48.5852 45.8838 48.344 45.9666 48.155 46.1271ZM48.8309 46.1908C48.9485 46.1852 49.0661 46.2011 49.1781 46.2379C49.2404 46.2639 49.2929 46.3095 49.3279 46.368C49.3629 46.4266 49.3786 46.495 49.3726 46.5633C49.3767 46.6131 49.3674 46.663 49.3458 46.7079C49.3242 46.7527 49.2911 46.7908 49.2499 46.8179C49.1935 46.8486 49.1325 46.8693 49.0693 46.8792C49.1116 46.8833 49.1526 46.8963 49.1897 46.9174C49.2267 46.9385 49.2591 46.9672 49.2846 47.0018C49.3261 47.0596 49.3502 47.1284 49.3541 47.1998V47.3884C49.3515 47.4104 49.3515 47.4325 49.3541 47.4545V47.471H49.148V47.3154C49.148 47.1668 49.1087 47.0678 49.0277 47.023C48.9491 46.991 48.8645 46.9773 48.78 46.9829H48.611V47.4827H48.3911V46.2026L48.8309 46.1908ZM49.0624 46.4006C48.9782 46.3622 48.8859 46.346 48.7939 46.3535H48.611V46.8108H48.8124C48.8854 46.8147 48.9585 46.8043 49.0277 46.7802C49.0641 46.7655 49.096 46.7411 49.1199 46.7096C49.1439 46.678 49.159 46.6405 49.1637 46.6009C49.1685 46.5613 49.1626 46.5211 49.1468 46.4846C49.131 46.4482 49.1059 46.4167 49.074 46.3935L49.0624 46.4006Z" fill="black"/>
<path d="M41.3024 0.861816H8.8563C3.97445 0.861816 0 4.81295 0 9.6653V39.1944C0 44.1132 3.85409 47.9695 8.77528 47.9695H41.2214C46.1425 47.9695 49.9989 44.1132 49.9989 39.1944V9.6653C49.9989 4.72994 46.1796 0.861816 41.3024 0.861816ZM49.0129 39.1921C49.0129 43.5464 45.5916 46.9591 41.2214 46.9591H8.77528C4.39806 46.9591 0.983776 43.5511 0.983776 39.1921V9.66293C0.983776 5.29202 4.45592 1.86976 8.85398 1.86976H41.3024C45.6264 1.86976 49.0129 5.29202 49.0129 9.66293V39.1921Z" fill="black"/>
<path d="M41.3046 1.87134H8.85849C4.44654 1.87134 0.988282 5.2936 0.988282 9.66451V39.1936C0.985968 43.5527 4.40025 46.9607 8.77747 46.9607H41.2235C45.5938 46.9607 49.0151 43.5479 49.0151 39.1936V9.66451C49.0151 5.2936 45.6285 1.87134 41.3046 1.87134Z" fill="#FCAF17"/>
<path d="M42.9357 28.8943H36.672L35.6789 22.4909L32.0077 28.8469H31.3133C30.9327 28.0813 30.7329 27.2348 30.73 26.3757C30.73 25.2847 30.8087 24.2175 30.8087 22.8182C30.8087 20.9778 30.2809 19.9912 28.8712 19.645V19.5975C31.8665 19.1707 33.2253 17.1405 33.2253 14.2804C33.2253 10.2201 30.5888 9.33789 27.1328 9.33789H17.8414L13.9062 28.4058H18.8529L20.2834 21.4688H23.5681C25.3204 21.4688 26.0379 22.3463 26.0379 24.0277C26.0379 25.3061 25.9083 26.3187 25.9083 27.303C25.9083 27.6682 25.9893 28.5149 26.2278 28.8421L29.7994 32.7055L26.7277 39.4765L33.2994 35.4874L38.1928 39.3366L37.2669 32.9498L42.9357 28.8943ZM25.0449 17.9042H21.1098L22.0589 13.308H25.7139C27.0148 13.308 28.3666 13.6543 28.3666 15.2859C28.3666 17.3421 26.8273 17.9042 25.0449 17.9042Z" fill="black"/>
<path d="M40.0539 29.8261H35.8989L35.179 25.1943L32.5309 29.7811H28.3389L30.8874 32.5321L28.7926 37.1426L33.3712 34.3559L36.9776 37.1971L36.3063 32.5132L40.0539 29.8261Z" fill="white"/>
</svg>
